<svg xmlns="http://www.w3.org/2000/svg" width="200" height="200" viewBox="0 0 200 200">
  <defs>
    <linearGradient id="storyGradient" x1="0%" y1="0%" x2="100%" y2="100%">
      <stop offset="0%" style="stop-color:#667eea"/>
      <stop offset="100%" style="stop-color:#764ba2"/>
    </linearGradient>
  </defs>
  <rect width="200" height="200" rx="40" fill="url(#storyGradient)"/>
  <!-- Open book icon -->
  <g transform="translate(40, 50)">
    <!-- Left page -->
    <path d="M10 20C10 12 18 8 30 8H55C58 8 60 10 60 13V90C60 90 50 85 30 85C10 85 10 90 10 90V20Z" fill="white" fill-opacity="0.95"/>
    <!-- Right page -->
    <path d="M110 20C110 12 102 8 90 8H65C62 8 60 10 60 13V90C60 90 70 85 90 85C110 85 110 90 110 90V20Z" fill="white" fill-opacity="0.8"/>
    <!-- Lines on left page -->
    <line x1="22" y1="28" x2="48" y2="28" stroke="#667eea" stroke-width="3" stroke-linecap="round" stroke-opacity="0.4"/>
    <line x1="22" y1="42" x2="48" y2="42" stroke="#667eea" stroke-width="3" stroke-linecap="round" stroke-opacity="0.4"/>
    <line x1="22" y1="56" x2="38" y2="56" stroke="#667eea" stroke-width="3" stroke-linecap="round" stroke-opacity="0.4"/>
    <!-- Lines on right page -->
    <line x1="72" y1="28" x2="98" y2="28" stroke="#764ba2" stroke-width="3" stroke-linecap="round" stroke-opacity="0.3"/>
    <line x1="72" y1="42" x2="98" y2="42" stroke="#764ba2" stroke-width="3" stroke-linecap="round" stroke-opacity="0.3"/>
    <line x1="82" y1="56" x2="98" y2="56" stroke="#764ba2" stroke-width="3" stroke-linecap="round" stroke-opacity="0.3"/>
  </g>
</svg>
